<mxfile host="app.diagrams.net" modified="2023-11-30T18:44:01.915Z" agent="Mozilla/5.0 (Windows NT 10.0; Win64; x64) AppleWebKit/537.36 (KHTML, like Gecko) Chrome/119.0.0.0 Safari/537.36" etag="Hrfc9bkkHrYDsllNpx29" version="22.1.5" type="device">
  <diagram id="C5RBs43oDa-KdzZeNtuy" name="Page-1">
    <mxGraphModel dx="2620" dy="3326" grid="1" gridSize="10" guides="1" tooltips="1" connect="1" arrows="1" fold="1" page="1" pageScale="1" pageWidth="827" pageHeight="1169" math="0" shadow="0">
      <root>
        <mxCell id="WIyWlLk6GJQsqaUBKTNV-0" />
        <mxCell id="WIyWlLk6GJQsqaUBKTNV-1" parent="WIyWlLk6GJQsqaUBKTNV-0" />
        <mxCell id="dU6jXv6rXy0poZ1c5g5G-8" style="edgeStyle=orthogonalEdgeStyle;rounded=0;orthogonalLoop=1;jettySize=auto;html=1;entryX=0;entryY=0.5;entryDx=0;entryDy=0;" parent="WIyWlLk6GJQsqaUBKTNV-1" source="CT4skuY-sF4vXmFkrXyj-0" target="dU6jXv6rXy0poZ1c5g5G-7" edge="1">
          <mxGeometry relative="1" as="geometry" />
        </mxCell>
        <mxCell id="CT4skuY-sF4vXmFkrXyj-0" value="Home Page" style="rounded=1;whiteSpace=wrap;html=1;" parent="WIyWlLk6GJQsqaUBKTNV-1" vertex="1">
          <mxGeometry x="490" y="330" width="120" height="60" as="geometry" />
        </mxCell>
        <mxCell id="CT4skuY-sF4vXmFkrXyj-4" style="edgeStyle=orthogonalEdgeStyle;rounded=0;orthogonalLoop=1;jettySize=auto;html=1;entryX=0;entryY=0.5;entryDx=0;entryDy=0;" parent="WIyWlLk6GJQsqaUBKTNV-1" source="CT4skuY-sF4vXmFkrXyj-1" target="CT4skuY-sF4vXmFkrXyj-3" edge="1">
          <mxGeometry relative="1" as="geometry">
            <Array as="points">
              <mxPoint x="1060" y="230" />
              <mxPoint x="1060" y="230" />
            </Array>
          </mxGeometry>
        </mxCell>
        <mxCell id="CT4skuY-sF4vXmFkrXyj-14" style="edgeStyle=orthogonalEdgeStyle;rounded=0;orthogonalLoop=1;jettySize=auto;html=1;entryX=0.5;entryY=1;entryDx=0;entryDy=0;exitX=0.25;exitY=0;exitDx=0;exitDy=0;" parent="WIyWlLk6GJQsqaUBKTNV-1" source="CT4skuY-sF4vXmFkrXyj-1" target="CT4skuY-sF4vXmFkrXyj-15" edge="1">
          <mxGeometry relative="1" as="geometry">
            <mxPoint x="750" y="270" as="targetPoint" />
          </mxGeometry>
        </mxCell>
        <mxCell id="CT4skuY-sF4vXmFkrXyj-1" value="Login" style="rounded=1;whiteSpace=wrap;html=1;fillColor=#fff2cc;strokeColor=#d6b656;" parent="WIyWlLk6GJQsqaUBKTNV-1" vertex="1">
          <mxGeometry x="830" y="200" width="120" height="60" as="geometry" />
        </mxCell>
        <mxCell id="CT4skuY-sF4vXmFkrXyj-6" style="edgeStyle=orthogonalEdgeStyle;rounded=0;orthogonalLoop=1;jettySize=auto;html=1;entryX=0.5;entryY=0;entryDx=0;entryDy=0;exitX=0.5;exitY=1;exitDx=0;exitDy=0;" parent="WIyWlLk6GJQsqaUBKTNV-1" source="CT4skuY-sF4vXmFkrXyj-3" target="CT4skuY-sF4vXmFkrXyj-5" edge="1">
          <mxGeometry relative="1" as="geometry">
            <Array as="points">
              <mxPoint x="1120" y="260" />
              <mxPoint x="1120" y="270" />
              <mxPoint x="1138" y="270" />
            </Array>
          </mxGeometry>
        </mxCell>
        <mxCell id="CT4skuY-sF4vXmFkrXyj-3" value="&lt;div&gt;Input data&lt;/div&gt;" style="shape=parallelogram;perimeter=parallelogramPerimeter;whiteSpace=wrap;html=1;fixedSize=1;fillColor=#fff2cc;strokeColor=#d6b656;" parent="WIyWlLk6GJQsqaUBKTNV-1" vertex="1">
          <mxGeometry x="1058.02" y="200" width="120" height="60" as="geometry" />
        </mxCell>
        <mxCell id="CT4skuY-sF4vXmFkrXyj-7" value="&lt;div&gt;No&lt;/div&gt;&lt;div&gt;(error feedback)&lt;br&gt;&lt;/div&gt;" style="edgeStyle=orthogonalEdgeStyle;rounded=0;orthogonalLoop=1;jettySize=auto;html=1;entryX=1;entryY=0.5;entryDx=0;entryDy=0;exitX=1;exitY=0.5;exitDx=0;exitDy=0;" parent="WIyWlLk6GJQsqaUBKTNV-1" source="CT4skuY-sF4vXmFkrXyj-5" target="CT4skuY-sF4vXmFkrXyj-3" edge="1">
          <mxGeometry x="-0.4399" relative="1" as="geometry">
            <mxPoint x="1112.45" y="270" as="targetPoint" />
            <Array as="points">
              <mxPoint x="1178" y="230" />
            </Array>
            <mxPoint as="offset" />
          </mxGeometry>
        </mxCell>
        <mxCell id="CT4skuY-sF4vXmFkrXyj-8" value="&lt;div&gt;Yes&lt;/div&gt;&lt;div&gt;(success feedback)&lt;br&gt;&lt;/div&gt;" style="edgeStyle=orthogonalEdgeStyle;rounded=0;orthogonalLoop=1;jettySize=auto;html=1;" parent="WIyWlLk6GJQsqaUBKTNV-1" source="CT4skuY-sF4vXmFkrXyj-5" edge="1">
          <mxGeometry x="-0.0266" relative="1" as="geometry">
            <mxPoint as="offset" />
            <mxPoint x="1002.45" y="320" as="targetPoint" />
          </mxGeometry>
        </mxCell>
        <mxCell id="CT4skuY-sF4vXmFkrXyj-5" value="isValid" style="rhombus;whiteSpace=wrap;html=1;fillColor=#fff2cc;strokeColor=#d6b656;" parent="WIyWlLk6GJQsqaUBKTNV-1" vertex="1">
          <mxGeometry x="1098.02" y="310" width="80" height="80" as="geometry" />
        </mxCell>
        <mxCell id="CT4skuY-sF4vXmFkrXyj-10" value="&lt;div&gt;username&lt;/div&gt;&lt;div&gt;password&lt;br&gt;&lt;/div&gt;" style="text;html=1;strokeColor=none;fillColor=none;align=center;verticalAlign=middle;whiteSpace=wrap;rounded=0;" parent="WIyWlLk6GJQsqaUBKTNV-1" vertex="1">
          <mxGeometry x="1283.45" y="150" width="60" height="40" as="geometry" />
        </mxCell>
        <mxCell id="CT4skuY-sF4vXmFkrXyj-17" style="edgeStyle=orthogonalEdgeStyle;rounded=0;orthogonalLoop=1;jettySize=auto;html=1;entryX=0;entryY=0.5;entryDx=0;entryDy=0;" parent="WIyWlLk6GJQsqaUBKTNV-1" source="CT4skuY-sF4vXmFkrXyj-15" target="CT4skuY-sF4vXmFkrXyj-16" edge="1">
          <mxGeometry relative="1" as="geometry" />
        </mxCell>
        <mxCell id="CT4skuY-sF4vXmFkrXyj-15" value="Register" style="rounded=1;whiteSpace=wrap;html=1;flipV=0;flipH=0;fillColor=#fff2cc;strokeColor=#d6b656;" parent="WIyWlLk6GJQsqaUBKTNV-1" vertex="1">
          <mxGeometry x="516.1899999999999" y="150" width="120" height="60" as="geometry" />
        </mxCell>
        <mxCell id="CT4skuY-sF4vXmFkrXyj-21" style="edgeStyle=orthogonalEdgeStyle;rounded=0;orthogonalLoop=1;jettySize=auto;html=1;entryX=0.5;entryY=1;entryDx=0;entryDy=0;" parent="WIyWlLk6GJQsqaUBKTNV-1" source="CT4skuY-sF4vXmFkrXyj-16" target="CT4skuY-sF4vXmFkrXyj-20" edge="1">
          <mxGeometry relative="1" as="geometry" />
        </mxCell>
        <mxCell id="CT4skuY-sF4vXmFkrXyj-16" value="&lt;div&gt;Input data&lt;/div&gt;" style="shape=parallelogram;perimeter=parallelogramPerimeter;whiteSpace=wrap;html=1;fixedSize=1;flipV=0;flipH=0;fillColor=#fff2cc;strokeColor=#d6b656;" parent="WIyWlLk6GJQsqaUBKTNV-1" vertex="1">
          <mxGeometry x="540" y="20" width="120" height="60" as="geometry" />
        </mxCell>
        <mxCell id="CT4skuY-sF4vXmFkrXyj-19" value="&lt;div&gt;firstName&lt;/div&gt;&lt;div&gt;lastName&lt;br&gt;&lt;/div&gt;&lt;div&gt;email&lt;/div&gt;&lt;div&gt;address&lt;br&gt;&lt;/div&gt;&lt;div&gt;username&lt;/div&gt;&lt;div&gt;password&lt;br&gt;&lt;/div&gt;" style="text;html=1;strokeColor=none;fillColor=none;align=center;verticalAlign=middle;whiteSpace=wrap;rounded=0;flipV=0;flipH=0;" parent="WIyWlLk6GJQsqaUBKTNV-1" vertex="1">
          <mxGeometry x="700" y="-20" width="60" height="105" as="geometry" />
        </mxCell>
        <mxCell id="CT4skuY-sF4vXmFkrXyj-22" style="edgeStyle=orthogonalEdgeStyle;rounded=0;orthogonalLoop=1;jettySize=auto;html=1;entryX=0.75;entryY=0;entryDx=0;entryDy=0;exitX=1;exitY=0.5;exitDx=0;exitDy=0;" parent="WIyWlLk6GJQsqaUBKTNV-1" source="CT4skuY-sF4vXmFkrXyj-20" target="CT4skuY-sF4vXmFkrXyj-16" edge="1">
          <mxGeometry relative="1" as="geometry">
            <Array as="points">
              <mxPoint x="776.1899999999999" y="130" />
              <mxPoint x="766.1899999999999" y="130" />
            </Array>
          </mxGeometry>
        </mxCell>
        <mxCell id="CT4skuY-sF4vXmFkrXyj-23" value="&lt;div&gt;No&lt;/div&gt;&lt;div&gt;(error feedback)&lt;br&gt;&lt;/div&gt;" style="edgeLabel;html=1;align=center;verticalAlign=middle;resizable=0;points=[];" parent="CT4skuY-sF4vXmFkrXyj-22" connectable="0" vertex="1">
          <mxGeometry x="0.0307" y="4" relative="1" as="geometry">
            <mxPoint x="16" y="-6" as="offset" />
          </mxGeometry>
        </mxCell>
        <mxCell id="CT4skuY-sF4vXmFkrXyj-24" style="edgeStyle=orthogonalEdgeStyle;rounded=0;orthogonalLoop=1;jettySize=auto;html=1;entryX=0;entryY=0.25;entryDx=0;entryDy=0;" parent="WIyWlLk6GJQsqaUBKTNV-1" source="CT4skuY-sF4vXmFkrXyj-20" target="CT4skuY-sF4vXmFkrXyj-0" edge="1">
          <mxGeometry relative="1" as="geometry" />
        </mxCell>
        <mxCell id="CT4skuY-sF4vXmFkrXyj-25" value="&lt;div&gt;Yes&lt;/div&gt;&lt;div&gt;(success feedback)&lt;br&gt;&lt;/div&gt;" style="edgeLabel;html=1;align=center;verticalAlign=middle;resizable=0;points=[];" parent="CT4skuY-sF4vXmFkrXyj-24" connectable="0" vertex="1">
          <mxGeometry x="-0.2038" y="1" relative="1" as="geometry">
            <mxPoint as="offset" />
          </mxGeometry>
        </mxCell>
        <mxCell id="CT4skuY-sF4vXmFkrXyj-20" value="isValid" style="rhombus;whiteSpace=wrap;html=1;fillColor=#fff2cc;strokeColor=#d6b656;" parent="WIyWlLk6GJQsqaUBKTNV-1" vertex="1">
          <mxGeometry x="409.99999999999994" y="30" width="80" height="80" as="geometry" />
        </mxCell>
        <mxCell id="CT4skuY-sF4vXmFkrXyj-34" style="edgeStyle=orthogonalEdgeStyle;rounded=0;orthogonalLoop=1;jettySize=auto;html=1;entryX=0.5;entryY=0;entryDx=0;entryDy=0;exitX=0.5;exitY=1;exitDx=0;exitDy=0;" parent="WIyWlLk6GJQsqaUBKTNV-1" source="dU6jXv6rXy0poZ1c5g5G-10" target="CT4skuY-sF4vXmFkrXyj-33" edge="1">
          <mxGeometry relative="1" as="geometry">
            <mxPoint x="900" y="600" as="sourcePoint" />
          </mxGeometry>
        </mxCell>
        <mxCell id="CT4skuY-sF4vXmFkrXyj-35" value="&lt;div&gt;Yes&lt;/div&gt;" style="edgeLabel;html=1;align=center;verticalAlign=middle;resizable=0;points=[];" parent="CT4skuY-sF4vXmFkrXyj-34" connectable="0" vertex="1">
          <mxGeometry x="0.1524" y="3" relative="1" as="geometry">
            <mxPoint x="-65" y="3" as="offset" />
          </mxGeometry>
        </mxCell>
        <mxCell id="CT4skuY-sF4vXmFkrXyj-37" style="edgeStyle=orthogonalEdgeStyle;rounded=0;orthogonalLoop=1;jettySize=auto;html=1;exitX=1;exitY=0.5;exitDx=0;exitDy=0;entryX=0;entryY=0.5;entryDx=0;entryDy=0;" parent="WIyWlLk6GJQsqaUBKTNV-1" source="CT4skuY-sF4vXmFkrXyj-33" target="CT4skuY-sF4vXmFkrXyj-36" edge="1">
          <mxGeometry relative="1" as="geometry" />
        </mxCell>
        <mxCell id="CT4skuY-sF4vXmFkrXyj-46" style="edgeStyle=orthogonalEdgeStyle;rounded=0;orthogonalLoop=1;jettySize=auto;html=1;exitX=0.25;exitY=1;exitDx=0;exitDy=0;entryX=1;entryY=0.5;entryDx=0;entryDy=0;" parent="WIyWlLk6GJQsqaUBKTNV-1" source="CT4skuY-sF4vXmFkrXyj-33" target="CT4skuY-sF4vXmFkrXyj-45" edge="1">
          <mxGeometry relative="1" as="geometry" />
        </mxCell>
        <mxCell id="CT4skuY-sF4vXmFkrXyj-33" value="Profile Page" style="rounded=1;whiteSpace=wrap;html=1;" parent="WIyWlLk6GJQsqaUBKTNV-1" vertex="1">
          <mxGeometry x="830.0699999999999" y="453.49" width="120" height="60" as="geometry" />
        </mxCell>
        <mxCell id="CT4skuY-sF4vXmFkrXyj-39" style="edgeStyle=orthogonalEdgeStyle;rounded=0;orthogonalLoop=1;jettySize=auto;html=1;exitX=1;exitY=0.5;exitDx=0;exitDy=0;entryX=0;entryY=0.5;entryDx=0;entryDy=0;" parent="WIyWlLk6GJQsqaUBKTNV-1" source="CT4skuY-sF4vXmFkrXyj-36" target="CT4skuY-sF4vXmFkrXyj-38" edge="1">
          <mxGeometry relative="1" as="geometry" />
        </mxCell>
        <mxCell id="CT4skuY-sF4vXmFkrXyj-36" value="&lt;div&gt;Edit Profile&lt;/div&gt;&lt;div&gt;Information&lt;/div&gt;" style="rounded=1;whiteSpace=wrap;html=1;" parent="WIyWlLk6GJQsqaUBKTNV-1" vertex="1">
          <mxGeometry x="1030.07" y="453.49" width="120" height="60" as="geometry" />
        </mxCell>
        <mxCell id="CT4skuY-sF4vXmFkrXyj-41" style="edgeStyle=orthogonalEdgeStyle;rounded=0;orthogonalLoop=1;jettySize=auto;html=1;exitX=0.5;exitY=1;exitDx=0;exitDy=0;entryX=0.5;entryY=0;entryDx=0;entryDy=0;" parent="WIyWlLk6GJQsqaUBKTNV-1" source="CT4skuY-sF4vXmFkrXyj-38" target="CT4skuY-sF4vXmFkrXyj-40" edge="1">
          <mxGeometry relative="1" as="geometry" />
        </mxCell>
        <mxCell id="CT4skuY-sF4vXmFkrXyj-38" value="&lt;div&gt;Input data&lt;/div&gt;" style="shape=parallelogram;perimeter=parallelogramPerimeter;whiteSpace=wrap;html=1;fixedSize=1;" parent="WIyWlLk6GJQsqaUBKTNV-1" vertex="1">
          <mxGeometry x="1202.1200000000001" y="453.49" width="120" height="60" as="geometry" />
        </mxCell>
        <mxCell id="CT4skuY-sF4vXmFkrXyj-42" style="edgeStyle=orthogonalEdgeStyle;rounded=0;orthogonalLoop=1;jettySize=auto;html=1;exitX=1;exitY=0.5;exitDx=0;exitDy=0;entryX=1;entryY=0.5;entryDx=0;entryDy=0;" parent="WIyWlLk6GJQsqaUBKTNV-1" source="CT4skuY-sF4vXmFkrXyj-40" target="CT4skuY-sF4vXmFkrXyj-38" edge="1">
          <mxGeometry relative="1" as="geometry">
            <Array as="points">
              <mxPoint x="1332.1200000000001" y="593.49" />
              <mxPoint x="1332.1200000000001" y="483.49" />
            </Array>
          </mxGeometry>
        </mxCell>
        <mxCell id="CT4skuY-sF4vXmFkrXyj-43" value="&lt;div&gt;No&lt;/div&gt;&lt;div&gt;(error feedback)&lt;br&gt;&lt;/div&gt;" style="edgeLabel;html=1;align=center;verticalAlign=middle;resizable=0;points=[];" parent="CT4skuY-sF4vXmFkrXyj-42" connectable="0" vertex="1">
          <mxGeometry x="0.0707" y="1" relative="1" as="geometry">
            <mxPoint as="offset" />
          </mxGeometry>
        </mxCell>
        <mxCell id="CT4skuY-sF4vXmFkrXyj-44" value="&lt;div&gt;Yes&lt;/div&gt;&lt;div&gt;(success feedback)&lt;br&gt;&lt;/div&gt;" style="edgeStyle=orthogonalEdgeStyle;rounded=0;orthogonalLoop=1;jettySize=auto;html=1;exitX=0;exitY=0.5;exitDx=0;exitDy=0;entryX=0.75;entryY=1;entryDx=0;entryDy=0;" parent="WIyWlLk6GJQsqaUBKTNV-1" source="CT4skuY-sF4vXmFkrXyj-40" target="CT4skuY-sF4vXmFkrXyj-33" edge="1">
          <mxGeometry relative="1" as="geometry" />
        </mxCell>
        <mxCell id="CT4skuY-sF4vXmFkrXyj-40" value="isValid" style="rhombus;whiteSpace=wrap;html=1;" parent="WIyWlLk6GJQsqaUBKTNV-1" vertex="1">
          <mxGeometry x="1222.1200000000001" y="553.49" width="80" height="80" as="geometry" />
        </mxCell>
        <mxCell id="CT4skuY-sF4vXmFkrXyj-47" style="edgeStyle=orthogonalEdgeStyle;rounded=0;orthogonalLoop=1;jettySize=auto;html=1;exitX=0.25;exitY=0;exitDx=0;exitDy=0;entryX=0;entryY=0.5;entryDx=0;entryDy=0;" parent="WIyWlLk6GJQsqaUBKTNV-1" source="CT4skuY-sF4vXmFkrXyj-45" target="CT4skuY-sF4vXmFkrXyj-33" edge="1">
          <mxGeometry relative="1" as="geometry" />
        </mxCell>
        <mxCell id="CT4skuY-sF4vXmFkrXyj-45" value="&lt;div&gt;Switch Print&lt;/div&gt;&lt;div&gt;Visibility&lt;br&gt;&lt;/div&gt;" style="rounded=1;whiteSpace=wrap;html=1;" parent="WIyWlLk6GJQsqaUBKTNV-1" vertex="1">
          <mxGeometry x="720.0699999999999" y="543.49" width="120" height="60" as="geometry" />
        </mxCell>
        <mxCell id="CT4skuY-sF4vXmFkrXyj-49" style="edgeStyle=orthogonalEdgeStyle;rounded=0;orthogonalLoop=1;jettySize=auto;html=1;exitX=0.5;exitY=1;exitDx=0;exitDy=0;entryX=0.5;entryY=0;entryDx=0;entryDy=0;" parent="WIyWlLk6GJQsqaUBKTNV-1" source="CT4skuY-sF4vXmFkrXyj-33" target="CT4skuY-sF4vXmFkrXyj-51" edge="1">
          <mxGeometry relative="1" as="geometry">
            <mxPoint x="850.0699999999999" y="683.49" as="sourcePoint" />
          </mxGeometry>
        </mxCell>
        <mxCell id="CT4skuY-sF4vXmFkrXyj-50" style="rounded=0;orthogonalLoop=1;jettySize=auto;html=1;exitX=1;exitY=0.5;exitDx=0;exitDy=0;entryX=0;entryY=0.5;entryDx=0;entryDy=0;strokeColor=default;" parent="WIyWlLk6GJQsqaUBKTNV-1" source="CT4skuY-sF4vXmFkrXyj-51" target="CT4skuY-sF4vXmFkrXyj-53" edge="1">
          <mxGeometry relative="1" as="geometry">
            <mxPoint x="970.0699999999999" y="653.49" as="targetPoint" />
          </mxGeometry>
        </mxCell>
        <mxCell id="CT4skuY-sF4vXmFkrXyj-51" value="&lt;div&gt;Edit Print&lt;/div&gt;&lt;div&gt;Information&lt;/div&gt;" style="rounded=1;whiteSpace=wrap;html=1;" parent="WIyWlLk6GJQsqaUBKTNV-1" vertex="1">
          <mxGeometry x="831.0699999999999" y="633.49" width="120" height="60" as="geometry" />
        </mxCell>
        <mxCell id="CT4skuY-sF4vXmFkrXyj-52" style="edgeStyle=orthogonalEdgeStyle;rounded=0;orthogonalLoop=1;jettySize=auto;html=1;exitX=0.5;exitY=1;exitDx=0;exitDy=0;entryX=0.5;entryY=0;entryDx=0;entryDy=0;" parent="WIyWlLk6GJQsqaUBKTNV-1" source="CT4skuY-sF4vXmFkrXyj-53" target="CT4skuY-sF4vXmFkrXyj-57" edge="1">
          <mxGeometry relative="1" as="geometry" />
        </mxCell>
        <mxCell id="CT4skuY-sF4vXmFkrXyj-53" value="&lt;div&gt;Input data&lt;/div&gt;" style="shape=parallelogram;perimeter=parallelogramPerimeter;whiteSpace=wrap;html=1;fixedSize=1;" parent="WIyWlLk6GJQsqaUBKTNV-1" vertex="1">
          <mxGeometry x="978.02" y="630.99" width="120" height="60" as="geometry" />
        </mxCell>
        <mxCell id="CT4skuY-sF4vXmFkrXyj-54" style="edgeStyle=orthogonalEdgeStyle;rounded=0;orthogonalLoop=1;jettySize=auto;html=1;exitX=1;exitY=0.5;exitDx=0;exitDy=0;entryX=1;entryY=0.5;entryDx=0;entryDy=0;" parent="WIyWlLk6GJQsqaUBKTNV-1" source="CT4skuY-sF4vXmFkrXyj-57" target="CT4skuY-sF4vXmFkrXyj-53" edge="1">
          <mxGeometry relative="1" as="geometry">
            <Array as="points">
              <mxPoint x="1108.0200000000002" y="770.99" />
              <mxPoint x="1108.0200000000002" y="660.99" />
            </Array>
          </mxGeometry>
        </mxCell>
        <mxCell id="CT4skuY-sF4vXmFkrXyj-55" value="&lt;div&gt;No&lt;/div&gt;&lt;div&gt;(error feedback)&lt;br&gt;&lt;/div&gt;" style="edgeLabel;html=1;align=center;verticalAlign=middle;resizable=0;points=[];" parent="CT4skuY-sF4vXmFkrXyj-54" connectable="0" vertex="1">
          <mxGeometry x="0.0707" y="1" relative="1" as="geometry">
            <mxPoint as="offset" />
          </mxGeometry>
        </mxCell>
        <mxCell id="CT4skuY-sF4vXmFkrXyj-56" value="&lt;div&gt;Yes&lt;/div&gt;&lt;div&gt;(success feedback)&lt;br&gt;&lt;/div&gt;" style="edgeStyle=orthogonalEdgeStyle;rounded=0;orthogonalLoop=1;jettySize=auto;html=1;exitX=0;exitY=0.5;exitDx=0;exitDy=0;entryX=0;entryY=0.25;entryDx=0;entryDy=0;" parent="WIyWlLk6GJQsqaUBKTNV-1" source="CT4skuY-sF4vXmFkrXyj-57" target="CT4skuY-sF4vXmFkrXyj-33" edge="1">
          <mxGeometry x="-0.7962" relative="1" as="geometry">
            <mxPoint x="730.0699999999999" y="713.49" as="targetPoint" />
            <Array as="points">
              <mxPoint x="700.0699999999999" y="773.49" />
              <mxPoint x="700.0699999999999" y="468.49" />
            </Array>
            <mxPoint as="offset" />
          </mxGeometry>
        </mxCell>
        <mxCell id="CT4skuY-sF4vXmFkrXyj-57" value="isValid" style="rhombus;whiteSpace=wrap;html=1;" parent="WIyWlLk6GJQsqaUBKTNV-1" vertex="1">
          <mxGeometry x="998.02" y="730.99" width="80" height="80" as="geometry" />
        </mxCell>
        <mxCell id="CT4skuY-sF4vXmFkrXyj-58" value="&lt;div&gt;username&lt;/div&gt;&lt;div&gt;profilePicture&lt;br&gt;&lt;/div&gt;" style="text;html=1;strokeColor=none;fillColor=none;align=center;verticalAlign=middle;whiteSpace=wrap;rounded=0;" parent="WIyWlLk6GJQsqaUBKTNV-1" vertex="1">
          <mxGeometry x="1362.1200000000001" y="443.49" width="75" height="40" as="geometry" />
        </mxCell>
        <mxCell id="CT4skuY-sF4vXmFkrXyj-61" value="&lt;div&gt;printName&lt;/div&gt;" style="text;html=1;strokeColor=none;fillColor=none;align=center;verticalAlign=middle;whiteSpace=wrap;rounded=0;" parent="WIyWlLk6GJQsqaUBKTNV-1" vertex="1">
          <mxGeometry x="1138.0200000000002" y="630.99" width="64.1" height="19" as="geometry" />
        </mxCell>
        <mxCell id="dU6jXv6rXy0poZ1c5g5G-0" value="" style="strokeWidth=2;html=1;shape=mxgraph.flowchart.annotation_2;align=left;labelPosition=right;pointerEvents=1;" parent="WIyWlLk6GJQsqaUBKTNV-1" vertex="1">
          <mxGeometry x="1322.1200000000001" y="443.49" width="70" height="40" as="geometry" />
        </mxCell>
        <mxCell id="dU6jXv6rXy0poZ1c5g5G-2" value="" style="strokeWidth=2;html=1;shape=mxgraph.flowchart.annotation_2;align=left;labelPosition=right;pointerEvents=1;" parent="WIyWlLk6GJQsqaUBKTNV-1" vertex="1">
          <mxGeometry x="1098.0200000000002" y="625.49" width="70" height="30" as="geometry" />
        </mxCell>
        <mxCell id="dU6jXv6rXy0poZ1c5g5G-3" value="" style="strokeWidth=2;html=1;shape=mxgraph.flowchart.annotation_2;align=left;labelPosition=right;pointerEvents=1;" parent="WIyWlLk6GJQsqaUBKTNV-1" vertex="1">
          <mxGeometry x="1242.45" y="150" width="70" height="40" as="geometry" />
        </mxCell>
        <mxCell id="dU6jXv6rXy0poZ1c5g5G-4" value="" style="strokeWidth=2;html=1;shape=mxgraph.flowchart.annotation_2;align=left;labelPosition=right;pointerEvents=1;flipV=0;flipH=0;" parent="WIyWlLk6GJQsqaUBKTNV-1" vertex="1">
          <mxGeometry x="660" y="-17.5" width="70" height="100" as="geometry" />
        </mxCell>
        <mxCell id="dU6jXv6rXy0poZ1c5g5G-6" value="Place Order Page" style="rounded=1;whiteSpace=wrap;html=1;" parent="WIyWlLk6GJQsqaUBKTNV-1" vertex="1">
          <mxGeometry x="90" y="230" width="120" height="60" as="geometry" />
        </mxCell>
        <mxCell id="dU6jXv6rXy0poZ1c5g5G-11" style="edgeStyle=orthogonalEdgeStyle;rounded=0;orthogonalLoop=1;jettySize=auto;html=1;exitX=1;exitY=0.5;exitDx=0;exitDy=0;entryX=0;entryY=0.5;entryDx=0;entryDy=0;" parent="WIyWlLk6GJQsqaUBKTNV-1" source="dU6jXv6rXy0poZ1c5g5G-7" target="dU6jXv6rXy0poZ1c5g5G-10" edge="1">
          <mxGeometry relative="1" as="geometry" />
        </mxCell>
        <mxCell id="dU6jXv6rXy0poZ1c5g5G-7" value="Login / Profile" style="rounded=1;whiteSpace=wrap;html=1;" parent="WIyWlLk6GJQsqaUBKTNV-1" vertex="1">
          <mxGeometry x="670" y="330" width="120" height="60" as="geometry" />
        </mxCell>
        <mxCell id="dU6jXv6rXy0poZ1c5g5G-12" value="No" style="edgeStyle=orthogonalEdgeStyle;rounded=0;orthogonalLoop=1;jettySize=auto;html=1;exitX=0.5;exitY=0;exitDx=0;exitDy=0;entryX=0.5;entryY=1;entryDx=0;entryDy=0;" parent="WIyWlLk6GJQsqaUBKTNV-1" source="dU6jXv6rXy0poZ1c5g5G-10" target="CT4skuY-sF4vXmFkrXyj-1" edge="1">
          <mxGeometry relative="1" as="geometry" />
        </mxCell>
        <mxCell id="dU6jXv6rXy0poZ1c5g5G-10" value="isLoggedIn" style="rhombus;whiteSpace=wrap;html=1;" parent="WIyWlLk6GJQsqaUBKTNV-1" vertex="1">
          <mxGeometry x="850" y="320" width="80" height="80" as="geometry" />
        </mxCell>
        <mxCell id="k9ecfntfly3kaGO9GItZ-10" value="" style="endArrow=classic;html=1;rounded=0;" parent="WIyWlLk6GJQsqaUBKTNV-1" edge="1">
          <mxGeometry width="50" height="50" relative="1" as="geometry">
            <mxPoint x="827" y="-1120" as="sourcePoint" />
            <mxPoint x="827" y="-1060" as="targetPoint" />
          </mxGeometry>
        </mxCell>
        <mxCell id="LVA1VL4anGFoCZ9Vgksi-9" style="edgeStyle=orthogonalEdgeStyle;rounded=0;orthogonalLoop=1;jettySize=auto;html=1;entryX=1;entryY=0.5;entryDx=0;entryDy=0;" parent="WIyWlLk6GJQsqaUBKTNV-1" source="LVA1VL4anGFoCZ9Vgksi-0" target="LVA1VL4anGFoCZ9Vgksi-8" edge="1">
          <mxGeometry relative="1" as="geometry" />
        </mxCell>
        <mxCell id="LVA1VL4anGFoCZ9Vgksi-10" value="No" style="edgeLabel;html=1;align=center;verticalAlign=middle;resizable=0;points=[];" parent="LVA1VL4anGFoCZ9Vgksi-9" vertex="1" connectable="0">
          <mxGeometry x="-0.021" y="2" relative="1" as="geometry">
            <mxPoint as="offset" />
          </mxGeometry>
        </mxCell>
        <mxCell id="LVA1VL4anGFoCZ9Vgksi-19" style="edgeStyle=orthogonalEdgeStyle;rounded=0;orthogonalLoop=1;jettySize=auto;html=1;entryX=0.5;entryY=0;entryDx=0;entryDy=0;" parent="WIyWlLk6GJQsqaUBKTNV-1" source="LVA1VL4anGFoCZ9Vgksi-0" target="LVA1VL4anGFoCZ9Vgksi-18" edge="1">
          <mxGeometry relative="1" as="geometry" />
        </mxCell>
        <mxCell id="LVA1VL4anGFoCZ9Vgksi-20" value="Yes" style="edgeLabel;html=1;align=center;verticalAlign=middle;resizable=0;points=[];" parent="LVA1VL4anGFoCZ9Vgksi-19" vertex="1" connectable="0">
          <mxGeometry x="-0.2988" y="-1" relative="1" as="geometry">
            <mxPoint as="offset" />
          </mxGeometry>
        </mxCell>
        <mxCell id="LVA1VL4anGFoCZ9Vgksi-58" style="edgeStyle=orthogonalEdgeStyle;rounded=0;orthogonalLoop=1;jettySize=auto;html=1;entryX=0;entryY=0.5;entryDx=0;entryDy=0;" parent="WIyWlLk6GJQsqaUBKTNV-1" source="LVA1VL4anGFoCZ9Vgksi-0" target="LVA1VL4anGFoCZ9Vgksi-26" edge="1">
          <mxGeometry relative="1" as="geometry" />
        </mxCell>
        <mxCell id="LVA1VL4anGFoCZ9Vgksi-59" value="yes" style="edgeLabel;html=1;align=center;verticalAlign=middle;resizable=0;points=[];" parent="LVA1VL4anGFoCZ9Vgksi-58" vertex="1" connectable="0">
          <mxGeometry x="-0.7075" relative="1" as="geometry">
            <mxPoint as="offset" />
          </mxGeometry>
        </mxCell>
        <mxCell id="LVA1VL4anGFoCZ9Vgksi-0" value="Is User Logged In?" style="rhombus;whiteSpace=wrap;html=1;fillColor=#d5e8d4;strokeColor=#82b366;" parent="WIyWlLk6GJQsqaUBKTNV-1" vertex="1">
          <mxGeometry x="770" y="-900" width="120" height="120" as="geometry" />
        </mxCell>
        <mxCell id="LVA1VL4anGFoCZ9Vgksi-1" value="Landing" style="whiteSpace=wrap;html=1;aspect=fixed;fillColor=#e1d5e7;strokeColor=#9673a6;" parent="WIyWlLk6GJQsqaUBKTNV-1" vertex="1">
          <mxGeometry x="790" y="-1200" width="80" height="80" as="geometry" />
        </mxCell>
        <mxCell id="LVA1VL4anGFoCZ9Vgksi-3" value="Browse Existing Templates&lt;br&gt;(Home)" style="whiteSpace=wrap;html=1;aspect=fixed;fillColor=#e1d5e7;strokeColor=#9673a6;" parent="WIyWlLk6GJQsqaUBKTNV-1" vertex="1">
          <mxGeometry x="790" y="-1060" width="80" height="80" as="geometry" />
        </mxCell>
        <mxCell id="LVA1VL4anGFoCZ9Vgksi-6" style="edgeStyle=orthogonalEdgeStyle;rounded=0;orthogonalLoop=1;jettySize=auto;html=1;entryX=0.5;entryY=0;entryDx=0;entryDy=0;" parent="WIyWlLk6GJQsqaUBKTNV-1" target="LVA1VL4anGFoCZ9Vgksi-1" edge="1">
          <mxGeometry relative="1" as="geometry">
            <mxPoint x="830" y="-1260.0000000000002" as="sourcePoint" />
          </mxGeometry>
        </mxCell>
        <mxCell id="LVA1VL4anGFoCZ9Vgksi-7" style="edgeStyle=orthogonalEdgeStyle;rounded=0;orthogonalLoop=1;jettySize=auto;html=1;entryX=0.5;entryY=0;entryDx=0;entryDy=0;" parent="WIyWlLk6GJQsqaUBKTNV-1" source="LVA1VL4anGFoCZ9Vgksi-3" target="LVA1VL4anGFoCZ9Vgksi-0" edge="1">
          <mxGeometry relative="1" as="geometry" />
        </mxCell>
        <mxCell id="LVA1VL4anGFoCZ9Vgksi-12" style="edgeStyle=orthogonalEdgeStyle;rounded=0;orthogonalLoop=1;jettySize=auto;html=1;entryX=1;entryY=0.5;entryDx=0;entryDy=0;" parent="WIyWlLk6GJQsqaUBKTNV-1" source="LVA1VL4anGFoCZ9Vgksi-8" target="LVA1VL4anGFoCZ9Vgksi-11" edge="1">
          <mxGeometry relative="1" as="geometry" />
        </mxCell>
        <mxCell id="LVA1VL4anGFoCZ9Vgksi-41" style="edgeStyle=orthogonalEdgeStyle;rounded=0;orthogonalLoop=1;jettySize=auto;html=1;" parent="WIyWlLk6GJQsqaUBKTNV-1" source="LVA1VL4anGFoCZ9Vgksi-8" edge="1">
          <mxGeometry relative="1" as="geometry">
            <mxPoint x="60" y="-920" as="targetPoint" />
            <Array as="points">
              <mxPoint x="480" y="-920" />
              <mxPoint x="100" y="-920" />
            </Array>
          </mxGeometry>
        </mxCell>
        <mxCell id="LVA1VL4anGFoCZ9Vgksi-8" value="Login" style="whiteSpace=wrap;html=1;aspect=fixed;fillColor=#e1d5e7;strokeColor=#9673a6;" parent="WIyWlLk6GJQsqaUBKTNV-1" vertex="1">
          <mxGeometry x="440" y="-1040" width="80" height="80" as="geometry" />
        </mxCell>
        <mxCell id="LVA1VL4anGFoCZ9Vgksi-15" style="edgeStyle=orthogonalEdgeStyle;rounded=0;orthogonalLoop=1;jettySize=auto;html=1;entryX=0.5;entryY=1;entryDx=0;entryDy=0;exitX=0.5;exitY=0.211;exitDx=0;exitDy=0;exitPerimeter=0;" parent="WIyWlLk6GJQsqaUBKTNV-1" source="LVA1VL4anGFoCZ9Vgksi-11" target="LVA1VL4anGFoCZ9Vgksi-13" edge="1">
          <mxGeometry relative="1" as="geometry" />
        </mxCell>
        <mxCell id="LVA1VL4anGFoCZ9Vgksi-11" value="User Inputs Data" style="html=1;strokeWidth=2;shape=manualInput;whiteSpace=wrap;rounded=1;size=26;arcSize=11;fillColor=#fff2cc;strokeColor=#d6b656;" parent="WIyWlLk6GJQsqaUBKTNV-1" vertex="1">
          <mxGeometry x="240" y="-1030" width="100" height="60" as="geometry" />
        </mxCell>
        <mxCell id="LVA1VL4anGFoCZ9Vgksi-16" style="edgeStyle=orthogonalEdgeStyle;rounded=0;orthogonalLoop=1;jettySize=auto;html=1;entryX=0.5;entryY=0;entryDx=0;entryDy=0;" parent="WIyWlLk6GJQsqaUBKTNV-1" source="LVA1VL4anGFoCZ9Vgksi-13" target="LVA1VL4anGFoCZ9Vgksi-8" edge="1">
          <mxGeometry relative="1" as="geometry" />
        </mxCell>
        <mxCell id="LVA1VL4anGFoCZ9Vgksi-17" value="No" style="edgeLabel;html=1;align=center;verticalAlign=middle;resizable=0;points=[];" parent="LVA1VL4anGFoCZ9Vgksi-16" vertex="1" connectable="0">
          <mxGeometry x="-0.25" relative="1" as="geometry">
            <mxPoint as="offset" />
          </mxGeometry>
        </mxCell>
        <mxCell id="LVA1VL4anGFoCZ9Vgksi-33" style="edgeStyle=orthogonalEdgeStyle;rounded=0;orthogonalLoop=1;jettySize=auto;html=1;entryX=0;entryY=0.25;entryDx=0;entryDy=0;" parent="WIyWlLk6GJQsqaUBKTNV-1" source="LVA1VL4anGFoCZ9Vgksi-13" target="LVA1VL4anGFoCZ9Vgksi-18" edge="1">
          <mxGeometry relative="1" as="geometry">
            <mxPoint x="740" y="-710" as="targetPoint" />
            <Array as="points">
              <mxPoint x="290" y="-1280" />
              <mxPoint x="740" y="-1280" />
              <mxPoint x="740" y="-680" />
            </Array>
          </mxGeometry>
        </mxCell>
        <mxCell id="LVA1VL4anGFoCZ9Vgksi-35" value="Yes" style="edgeLabel;html=1;align=center;verticalAlign=middle;resizable=0;points=[];" parent="LVA1VL4anGFoCZ9Vgksi-33" vertex="1" connectable="0">
          <mxGeometry x="-0.4454" relative="1" as="geometry">
            <mxPoint as="offset" />
          </mxGeometry>
        </mxCell>
        <mxCell id="LVA1VL4anGFoCZ9Vgksi-13" value="Is Data Valid?" style="rhombus;whiteSpace=wrap;html=1;fillColor=#d5e8d4;strokeColor=#82b366;" parent="WIyWlLk6GJQsqaUBKTNV-1" vertex="1">
          <mxGeometry x="240" y="-1230" width="100" height="100" as="geometry" />
        </mxCell>
        <mxCell id="LVA1VL4anGFoCZ9Vgksi-22" style="edgeStyle=orthogonalEdgeStyle;rounded=0;orthogonalLoop=1;jettySize=auto;html=1;entryX=0.5;entryY=1;entryDx=0;entryDy=0;" parent="WIyWlLk6GJQsqaUBKTNV-1" source="LVA1VL4anGFoCZ9Vgksi-18" target="LVA1VL4anGFoCZ9Vgksi-21" edge="1">
          <mxGeometry relative="1" as="geometry">
            <Array as="points">
              <mxPoint x="650" y="-660" />
            </Array>
          </mxGeometry>
        </mxCell>
        <mxCell id="LVA1VL4anGFoCZ9Vgksi-80" style="edgeStyle=orthogonalEdgeStyle;rounded=0;orthogonalLoop=1;jettySize=auto;html=1;entryX=0;entryY=0.5;entryDx=0;entryDy=0;" parent="WIyWlLk6GJQsqaUBKTNV-1" source="LVA1VL4anGFoCZ9Vgksi-18" target="LVA1VL4anGFoCZ9Vgksi-79" edge="1">
          <mxGeometry relative="1" as="geometry" />
        </mxCell>
        <mxCell id="LVA1VL4anGFoCZ9Vgksi-99" style="edgeStyle=orthogonalEdgeStyle;orthogonalLoop=1;jettySize=auto;html=1;rounded=0;dashed=1;" parent="WIyWlLk6GJQsqaUBKTNV-1" source="LVA1VL4anGFoCZ9Vgksi-18" edge="1">
          <mxGeometry relative="1" as="geometry">
            <mxPoint x="900" y="-140" as="targetPoint" />
            <Array as="points">
              <mxPoint x="731" y="-630" />
              <mxPoint x="731" y="-140" />
            </Array>
          </mxGeometry>
        </mxCell>
        <mxCell id="LVA1VL4anGFoCZ9Vgksi-18" value="Print Service" style="whiteSpace=wrap;html=1;aspect=fixed;fillColor=#e1d5e7;strokeColor=#9673a6;" parent="WIyWlLk6GJQsqaUBKTNV-1" vertex="1">
          <mxGeometry x="790" y="-700" width="80" height="80" as="geometry" />
        </mxCell>
        <mxCell id="LVA1VL4anGFoCZ9Vgksi-21" value="Create Community Template" style="whiteSpace=wrap;html=1;aspect=fixed;fillColor=#e1d5e7;strokeColor=#9673a6;" parent="WIyWlLk6GJQsqaUBKTNV-1" vertex="1">
          <mxGeometry x="610" y="-780" width="80" height="80" as="geometry" />
        </mxCell>
        <mxCell id="LVA1VL4anGFoCZ9Vgksi-25" value="Checkout" style="whiteSpace=wrap;html=1;aspect=fixed;fillColor=#e1d5e7;strokeColor=#9673a6;" parent="WIyWlLk6GJQsqaUBKTNV-1" vertex="1">
          <mxGeometry x="1020" y="-520" width="80" height="80" as="geometry" />
        </mxCell>
        <mxCell id="LVA1VL4anGFoCZ9Vgksi-66" style="edgeStyle=orthogonalEdgeStyle;rounded=0;orthogonalLoop=1;jettySize=auto;html=1;entryX=0.5;entryY=1;entryDx=0;entryDy=0;" parent="WIyWlLk6GJQsqaUBKTNV-1" source="LVA1VL4anGFoCZ9Vgksi-26" target="LVA1VL4anGFoCZ9Vgksi-65" edge="1">
          <mxGeometry relative="1" as="geometry" />
        </mxCell>
        <mxCell id="LVA1VL4anGFoCZ9Vgksi-26" value="Profile" style="whiteSpace=wrap;html=1;aspect=fixed;fillColor=#e1d5e7;strokeColor=#9673a6;" parent="WIyWlLk6GJQsqaUBKTNV-1" vertex="1">
          <mxGeometry x="1008" y="-980" width="80" height="80" as="geometry" />
        </mxCell>
        <mxCell id="LVA1VL4anGFoCZ9Vgksi-27" value="My Orders" style="whiteSpace=wrap;html=1;aspect=fixed;fillColor=#e1d5e7;strokeColor=#9673a6;" parent="WIyWlLk6GJQsqaUBKTNV-1" vertex="1">
          <mxGeometry x="1188.02" y="-1150" width="80" height="80" as="geometry" />
        </mxCell>
        <mxCell id="LVA1VL4anGFoCZ9Vgksi-37" value="Username,&lt;br&gt;Password" style="strokeWidth=2;html=1;shape=mxgraph.flowchart.annotation_2;align=left;labelPosition=right;pointerEvents=1;" parent="WIyWlLk6GJQsqaUBKTNV-1" vertex="1">
          <mxGeometry x="364" y="-1169" width="50" height="100" as="geometry" />
        </mxCell>
        <mxCell id="LVA1VL4anGFoCZ9Vgksi-39" style="edgeStyle=orthogonalEdgeStyle;rounded=0;orthogonalLoop=1;jettySize=auto;html=1;exitX=0.799;exitY=0.092;exitDx=0;exitDy=0;exitPerimeter=0;" parent="WIyWlLk6GJQsqaUBKTNV-1" source="LVA1VL4anGFoCZ9Vgksi-11" edge="1">
          <mxGeometry relative="1" as="geometry">
            <mxPoint x="360" y="-1119" as="targetPoint" />
            <Array as="points">
              <mxPoint x="320" y="-1050" />
              <mxPoint x="350" y="-1050" />
              <mxPoint x="350" y="-1119" />
            </Array>
          </mxGeometry>
        </mxCell>
        <mxCell id="LVA1VL4anGFoCZ9Vgksi-44" style="edgeStyle=orthogonalEdgeStyle;rounded=0;orthogonalLoop=1;jettySize=auto;html=1;entryX=1;entryY=0.5;entryDx=0;entryDy=0;" parent="WIyWlLk6GJQsqaUBKTNV-1" source="LVA1VL4anGFoCZ9Vgksi-42" target="LVA1VL4anGFoCZ9Vgksi-43" edge="1">
          <mxGeometry relative="1" as="geometry" />
        </mxCell>
        <mxCell id="LVA1VL4anGFoCZ9Vgksi-42" value="Registration" style="whiteSpace=wrap;html=1;aspect=fixed;fillColor=#e1d5e7;strokeColor=#9673a6;" parent="WIyWlLk6GJQsqaUBKTNV-1" vertex="1">
          <mxGeometry x="-20" y="-960" width="80" height="80" as="geometry" />
        </mxCell>
        <mxCell id="LVA1VL4anGFoCZ9Vgksi-45" style="edgeStyle=orthogonalEdgeStyle;rounded=0;orthogonalLoop=1;jettySize=auto;html=1;exitX=0.497;exitY=0.199;exitDx=0;exitDy=0;exitPerimeter=0;" parent="WIyWlLk6GJQsqaUBKTNV-1" source="LVA1VL4anGFoCZ9Vgksi-43" edge="1">
          <mxGeometry relative="1" as="geometry">
            <mxPoint x="-220" y="-1050" as="targetPoint" />
          </mxGeometry>
        </mxCell>
        <mxCell id="LVA1VL4anGFoCZ9Vgksi-50" style="edgeStyle=orthogonalEdgeStyle;rounded=0;orthogonalLoop=1;jettySize=auto;html=1;exitX=0.798;exitY=0.095;exitDx=0;exitDy=0;exitPerimeter=0;" parent="WIyWlLk6GJQsqaUBKTNV-1" source="LVA1VL4anGFoCZ9Vgksi-43" edge="1">
          <mxGeometry relative="1" as="geometry">
            <mxPoint x="-70" y="-1090" as="targetPoint" />
            <Array as="points">
              <mxPoint x="-190" y="-980" />
              <mxPoint x="-90" y="-980" />
            </Array>
          </mxGeometry>
        </mxCell>
        <mxCell id="LVA1VL4anGFoCZ9Vgksi-43" value="User Inputs Data" style="html=1;strokeWidth=2;shape=manualInput;whiteSpace=wrap;rounded=1;size=26;arcSize=11;fillColor=#fff2cc;strokeColor=#d6b656;" parent="WIyWlLk6GJQsqaUBKTNV-1" vertex="1">
          <mxGeometry x="-270" y="-950" width="100" height="60" as="geometry" />
        </mxCell>
        <mxCell id="LVA1VL4anGFoCZ9Vgksi-48" style="edgeStyle=orthogonalEdgeStyle;rounded=0;orthogonalLoop=1;jettySize=auto;html=1;entryX=0.5;entryY=1;entryDx=0;entryDy=0;" parent="WIyWlLk6GJQsqaUBKTNV-1" source="LVA1VL4anGFoCZ9Vgksi-46" target="LVA1VL4anGFoCZ9Vgksi-47" edge="1">
          <mxGeometry relative="1" as="geometry" />
        </mxCell>
        <mxCell id="LVA1VL4anGFoCZ9Vgksi-49" value="No" style="edgeLabel;html=1;align=center;verticalAlign=middle;resizable=0;points=[];" parent="LVA1VL4anGFoCZ9Vgksi-48" vertex="1" connectable="0">
          <mxGeometry x="-0.0148" y="-1" relative="1" as="geometry">
            <mxPoint as="offset" />
          </mxGeometry>
        </mxCell>
        <mxCell id="LVA1VL4anGFoCZ9Vgksi-56" style="edgeStyle=orthogonalEdgeStyle;rounded=0;orthogonalLoop=1;jettySize=auto;html=1;entryX=1;entryY=0.25;entryDx=0;entryDy=0;" parent="WIyWlLk6GJQsqaUBKTNV-1" source="LVA1VL4anGFoCZ9Vgksi-46" target="LVA1VL4anGFoCZ9Vgksi-8" edge="1">
          <mxGeometry relative="1" as="geometry">
            <Array as="points">
              <mxPoint x="-140" y="-1100" />
              <mxPoint x="-140" y="-1250" />
              <mxPoint x="540" y="-1250" />
              <mxPoint x="540" y="-1020" />
            </Array>
          </mxGeometry>
        </mxCell>
        <mxCell id="LVA1VL4anGFoCZ9Vgksi-57" value="yes" style="edgeLabel;html=1;align=center;verticalAlign=middle;resizable=0;points=[];" parent="LVA1VL4anGFoCZ9Vgksi-56" vertex="1" connectable="0">
          <mxGeometry x="-0.4937" y="1" relative="1" as="geometry">
            <mxPoint as="offset" />
          </mxGeometry>
        </mxCell>
        <mxCell id="LVA1VL4anGFoCZ9Vgksi-46" value="Does User Exist?" style="rhombus;whiteSpace=wrap;html=1;fillColor=#d5e8d4;strokeColor=#82b366;" parent="WIyWlLk6GJQsqaUBKTNV-1" vertex="1">
          <mxGeometry x="-270" y="-1150" width="100" height="100" as="geometry" />
        </mxCell>
        <mxCell id="LVA1VL4anGFoCZ9Vgksi-52" style="edgeStyle=orthogonalEdgeStyle;rounded=0;orthogonalLoop=1;jettySize=auto;html=1;entryX=1;entryY=0.25;entryDx=0;entryDy=0;" parent="WIyWlLk6GJQsqaUBKTNV-1" source="LVA1VL4anGFoCZ9Vgksi-47" target="LVA1VL4anGFoCZ9Vgksi-42" edge="1">
          <mxGeometry relative="1" as="geometry">
            <Array as="points">
              <mxPoint x="120" y="-1290" />
              <mxPoint x="120" y="-940" />
            </Array>
          </mxGeometry>
        </mxCell>
        <mxCell id="LVA1VL4anGFoCZ9Vgksi-53" value="No" style="edgeLabel;html=1;align=center;verticalAlign=middle;resizable=0;points=[];" parent="LVA1VL4anGFoCZ9Vgksi-52" vertex="1" connectable="0">
          <mxGeometry x="-0.6282" y="3" relative="1" as="geometry">
            <mxPoint as="offset" />
          </mxGeometry>
        </mxCell>
        <mxCell id="LVA1VL4anGFoCZ9Vgksi-47" value="Is Data Valid?" style="rhombus;whiteSpace=wrap;html=1;fillColor=#d5e8d4;strokeColor=#82b366;" parent="WIyWlLk6GJQsqaUBKTNV-1" vertex="1">
          <mxGeometry x="-270" y="-1340" width="100" height="100" as="geometry" />
        </mxCell>
        <mxCell id="LVA1VL4anGFoCZ9Vgksi-51" value="First Name,&lt;br&gt;Last Name,&lt;br&gt;Email,&lt;br&gt;Telephone Number&lt;br&gt;Address,&lt;br&gt;Postal Code,&lt;br&gt;Username,&lt;br&gt;Password" style="strokeWidth=2;html=1;shape=mxgraph.flowchart.annotation_2;align=left;labelPosition=right;pointerEvents=1;" parent="WIyWlLk6GJQsqaUBKTNV-1" vertex="1">
          <mxGeometry x="-60" y="-1140" width="50" height="100" as="geometry" />
        </mxCell>
        <mxCell id="LVA1VL4anGFoCZ9Vgksi-54" style="edgeStyle=orthogonalEdgeStyle;rounded=0;orthogonalLoop=1;jettySize=auto;html=1;entryX=0;entryY=0.75;entryDx=0;entryDy=0;" parent="WIyWlLk6GJQsqaUBKTNV-1" source="LVA1VL4anGFoCZ9Vgksi-47" target="LVA1VL4anGFoCZ9Vgksi-18" edge="1">
          <mxGeometry relative="1" as="geometry">
            <Array as="points">
              <mxPoint x="-330" y="-1290" />
              <mxPoint x="-330" y="-640" />
            </Array>
          </mxGeometry>
        </mxCell>
        <mxCell id="LVA1VL4anGFoCZ9Vgksi-55" value="Yes" style="edgeLabel;html=1;align=center;verticalAlign=middle;resizable=0;points=[];" parent="LVA1VL4anGFoCZ9Vgksi-54" vertex="1" connectable="0">
          <mxGeometry x="0.3881" y="-1" relative="1" as="geometry">
            <mxPoint x="1" as="offset" />
          </mxGeometry>
        </mxCell>
        <mxCell id="LVA1VL4anGFoCZ9Vgksi-64" style="edgeStyle=orthogonalEdgeStyle;rounded=0;orthogonalLoop=1;jettySize=auto;html=1;entryX=0;entryY=0.5;entryDx=0;entryDy=0;" parent="WIyWlLk6GJQsqaUBKTNV-1" source="LVA1VL4anGFoCZ9Vgksi-60" target="LVA1VL4anGFoCZ9Vgksi-63" edge="1">
          <mxGeometry relative="1" as="geometry" />
        </mxCell>
        <mxCell id="LVA1VL4anGFoCZ9Vgksi-60" value="User wants&lt;br&gt;&amp;nbsp;to edit info." style="verticalLabelPosition=middle;verticalAlign=middle;html=1;shape=trapezoid;perimeter=trapezoidPerimeter;whiteSpace=wrap;size=0.23;arcSize=10;flipV=1;labelPosition=center;align=center;fillColor=#f8cecc;strokeColor=#b85450;" parent="WIyWlLk6GJQsqaUBKTNV-1" vertex="1">
          <mxGeometry x="1173.02" y="-970" width="100" height="60" as="geometry" />
        </mxCell>
        <mxCell id="LVA1VL4anGFoCZ9Vgksi-61" style="edgeStyle=orthogonalEdgeStyle;rounded=0;orthogonalLoop=1;jettySize=auto;html=1;entryX=0;entryY=0.5;entryDx=0;entryDy=0;" parent="WIyWlLk6GJQsqaUBKTNV-1" source="LVA1VL4anGFoCZ9Vgksi-26" target="LVA1VL4anGFoCZ9Vgksi-60" edge="1">
          <mxGeometry relative="1" as="geometry" />
        </mxCell>
        <mxCell id="LVA1VL4anGFoCZ9Vgksi-62" value="Start" style="strokeWidth=2;html=1;shape=mxgraph.flowchart.start_1;whiteSpace=wrap;" parent="WIyWlLk6GJQsqaUBKTNV-1" vertex="1">
          <mxGeometry x="780" y="-1320" width="100" height="60" as="geometry" />
        </mxCell>
        <mxCell id="LVA1VL4anGFoCZ9Vgksi-71" style="edgeStyle=orthogonalEdgeStyle;rounded=0;orthogonalLoop=1;jettySize=auto;html=1;entryX=0;entryY=0.5;entryDx=0;entryDy=0;entryPerimeter=0;exitX=0.665;exitY=0.132;exitDx=0;exitDy=0;exitPerimeter=0;" parent="WIyWlLk6GJQsqaUBKTNV-1" source="LVA1VL4anGFoCZ9Vgksi-63" target="LVA1VL4anGFoCZ9Vgksi-72" edge="1">
          <mxGeometry relative="1" as="geometry">
            <mxPoint x="1450" y="-1100" as="targetPoint" />
            <Array as="points">
              <mxPoint x="1420" y="-1005" />
              <mxPoint x="1462" y="-1005" />
              <mxPoint x="1462" y="-1090" />
            </Array>
          </mxGeometry>
        </mxCell>
        <mxCell id="LVA1VL4anGFoCZ9Vgksi-74" style="edgeStyle=orthogonalEdgeStyle;rounded=0;orthogonalLoop=1;jettySize=auto;html=1;" parent="WIyWlLk6GJQsqaUBKTNV-1" source="LVA1VL4anGFoCZ9Vgksi-63" target="LVA1VL4anGFoCZ9Vgksi-73" edge="1">
          <mxGeometry relative="1" as="geometry" />
        </mxCell>
        <mxCell id="LVA1VL4anGFoCZ9Vgksi-63" value="User input data," style="html=1;strokeWidth=2;shape=manualInput;whiteSpace=wrap;rounded=1;size=26;arcSize=11;fillColor=#fff2cc;strokeColor=#d6b656;" parent="WIyWlLk6GJQsqaUBKTNV-1" vertex="1">
          <mxGeometry x="1353" y="-970" width="100" height="60" as="geometry" />
        </mxCell>
        <mxCell id="LVA1VL4anGFoCZ9Vgksi-67" style="edgeStyle=orthogonalEdgeStyle;rounded=0;orthogonalLoop=1;jettySize=auto;html=1;entryX=0;entryY=0.25;entryDx=0;entryDy=0;" parent="WIyWlLk6GJQsqaUBKTNV-1" source="LVA1VL4anGFoCZ9Vgksi-65" target="LVA1VL4anGFoCZ9Vgksi-26" edge="1">
          <mxGeometry relative="1" as="geometry">
            <Array as="points">
              <mxPoint x="960" y="-1120" />
              <mxPoint x="960" y="-960" />
            </Array>
          </mxGeometry>
        </mxCell>
        <mxCell id="LVA1VL4anGFoCZ9Vgksi-68" value="No" style="edgeLabel;html=1;align=center;verticalAlign=middle;resizable=0;points=[];" parent="LVA1VL4anGFoCZ9Vgksi-67" vertex="1" connectable="0">
          <mxGeometry x="-0.7572" y="-1" relative="1" as="geometry">
            <mxPoint as="offset" />
          </mxGeometry>
        </mxCell>
        <mxCell id="LVA1VL4anGFoCZ9Vgksi-65" value="Does user have orders?" style="rhombus;whiteSpace=wrap;html=1;fillColor=#d5e8d4;strokeColor=#82b366;" parent="WIyWlLk6GJQsqaUBKTNV-1" vertex="1">
          <mxGeometry x="992" y="-1160" width="112" height="110" as="geometry" />
        </mxCell>
        <mxCell id="LVA1VL4anGFoCZ9Vgksi-69" style="edgeStyle=orthogonalEdgeStyle;rounded=0;orthogonalLoop=1;jettySize=auto;html=1;entryX=-0.003;entryY=0.56;entryDx=0;entryDy=0;entryPerimeter=0;" parent="WIyWlLk6GJQsqaUBKTNV-1" source="LVA1VL4anGFoCZ9Vgksi-65" target="LVA1VL4anGFoCZ9Vgksi-27" edge="1">
          <mxGeometry relative="1" as="geometry" />
        </mxCell>
        <mxCell id="LVA1VL4anGFoCZ9Vgksi-70" value="Yes" style="edgeLabel;html=1;align=center;verticalAlign=middle;resizable=0;points=[];" parent="LVA1VL4anGFoCZ9Vgksi-69" vertex="1" connectable="0">
          <mxGeometry x="0.0023" y="-1" relative="1" as="geometry">
            <mxPoint as="offset" />
          </mxGeometry>
        </mxCell>
        <mxCell id="LVA1VL4anGFoCZ9Vgksi-72" value="First Name,&lt;br&gt;Last Name,&lt;br&gt;Email,&lt;br&gt;Telephone Number,&lt;br&gt;Address,&lt;br&gt;Postal Code,&lt;br&gt;Username,&lt;br&gt;Password" style="strokeWidth=2;html=1;shape=mxgraph.flowchart.annotation_2;align=left;labelPosition=right;pointerEvents=1;" parent="WIyWlLk6GJQsqaUBKTNV-1" vertex="1">
          <mxGeometry x="1482" y="-1140" width="50" height="100" as="geometry" />
        </mxCell>
        <mxCell id="LVA1VL4anGFoCZ9Vgksi-73" value="Is Data Valid?" style="rhombus;whiteSpace=wrap;html=1;fillColor=#d5e8d4;strokeColor=#82b366;" parent="WIyWlLk6GJQsqaUBKTNV-1" vertex="1">
          <mxGeometry x="1352.12" y="-830" width="100" height="100" as="geometry" />
        </mxCell>
        <mxCell id="LVA1VL4anGFoCZ9Vgksi-75" style="edgeStyle=orthogonalEdgeStyle;rounded=0;orthogonalLoop=1;jettySize=auto;html=1;entryX=1.008;entryY=0.539;entryDx=0;entryDy=0;entryPerimeter=0;" parent="WIyWlLk6GJQsqaUBKTNV-1" source="LVA1VL4anGFoCZ9Vgksi-73" target="LVA1VL4anGFoCZ9Vgksi-63" edge="1">
          <mxGeometry relative="1" as="geometry">
            <Array as="points">
              <mxPoint x="1500" y="-780" />
              <mxPoint x="1500" y="-938" />
            </Array>
          </mxGeometry>
        </mxCell>
        <mxCell id="LVA1VL4anGFoCZ9Vgksi-76" value="No" style="edgeLabel;html=1;align=center;verticalAlign=middle;resizable=0;points=[];" parent="LVA1VL4anGFoCZ9Vgksi-75" vertex="1" connectable="0">
          <mxGeometry x="0.7822" y="1" relative="1" as="geometry">
            <mxPoint as="offset" />
          </mxGeometry>
        </mxCell>
        <mxCell id="LVA1VL4anGFoCZ9Vgksi-77" style="edgeStyle=orthogonalEdgeStyle;rounded=0;orthogonalLoop=1;jettySize=auto;html=1;entryX=0.698;entryY=1.006;entryDx=0;entryDy=0;entryPerimeter=0;" parent="WIyWlLk6GJQsqaUBKTNV-1" source="LVA1VL4anGFoCZ9Vgksi-73" target="LVA1VL4anGFoCZ9Vgksi-26" edge="1">
          <mxGeometry relative="1" as="geometry" />
        </mxCell>
        <mxCell id="LVA1VL4anGFoCZ9Vgksi-78" value="Yes" style="edgeLabel;html=1;align=center;verticalAlign=middle;resizable=0;points=[];" parent="LVA1VL4anGFoCZ9Vgksi-77" vertex="1" connectable="0">
          <mxGeometry x="-0.5043" y="-1" relative="1" as="geometry">
            <mxPoint as="offset" />
          </mxGeometry>
        </mxCell>
        <mxCell id="LVA1VL4anGFoCZ9Vgksi-81" style="edgeStyle=orthogonalEdgeStyle;rounded=0;orthogonalLoop=1;jettySize=auto;html=1;entryX=0.75;entryY=0;entryDx=0;entryDy=0;" parent="WIyWlLk6GJQsqaUBKTNV-1" source="LVA1VL4anGFoCZ9Vgksi-79" target="LVA1VL4anGFoCZ9Vgksi-25" edge="1">
          <mxGeometry relative="1" as="geometry" />
        </mxCell>
        <mxCell id="LVA1VL4anGFoCZ9Vgksi-82" value="Yes" style="edgeLabel;html=1;align=center;verticalAlign=middle;resizable=0;points=[];" parent="LVA1VL4anGFoCZ9Vgksi-81" vertex="1" connectable="0">
          <mxGeometry x="0.1" y="-1" relative="1" as="geometry">
            <mxPoint as="offset" />
          </mxGeometry>
        </mxCell>
        <mxCell id="LVA1VL4anGFoCZ9Vgksi-83" style="edgeStyle=orthogonalEdgeStyle;rounded=0;orthogonalLoop=1;jettySize=auto;html=1;entryX=1;entryY=0.25;entryDx=0;entryDy=0;" parent="WIyWlLk6GJQsqaUBKTNV-1" source="LVA1VL4anGFoCZ9Vgksi-79" target="LVA1VL4anGFoCZ9Vgksi-18" edge="1">
          <mxGeometry relative="1" as="geometry">
            <Array as="points">
              <mxPoint x="1030" y="-740" />
              <mxPoint x="935" y="-740" />
              <mxPoint x="935" y="-680" />
            </Array>
          </mxGeometry>
        </mxCell>
        <mxCell id="LVA1VL4anGFoCZ9Vgksi-84" value="No" style="edgeLabel;html=1;align=center;verticalAlign=middle;resizable=0;points=[];" parent="LVA1VL4anGFoCZ9Vgksi-83" vertex="1" connectable="0">
          <mxGeometry x="-0.2122" relative="1" as="geometry">
            <mxPoint as="offset" />
          </mxGeometry>
        </mxCell>
        <mxCell id="LVA1VL4anGFoCZ9Vgksi-79" value="Has user made&lt;br&gt;&amp;nbsp;a purchase?" style="rhombus;whiteSpace=wrap;html=1;fillColor=#d5e8d4;strokeColor=#82b366;" parent="WIyWlLk6GJQsqaUBKTNV-1" vertex="1">
          <mxGeometry x="980" y="-710" width="100" height="100" as="geometry" />
        </mxCell>
        <mxCell id="LVA1VL4anGFoCZ9Vgksi-86" style="edgeStyle=orthogonalEdgeStyle;rounded=0;orthogonalLoop=1;jettySize=auto;html=1;entryX=0;entryY=0.5;entryDx=0;entryDy=0;dashed=1;" parent="WIyWlLk6GJQsqaUBKTNV-1" source="LVA1VL4anGFoCZ9Vgksi-85" target="LVA1VL4anGFoCZ9Vgksi-46" edge="1">
          <mxGeometry relative="1" as="geometry" />
        </mxCell>
        <mxCell id="LVA1VL4anGFoCZ9Vgksi-85" value="Users" style="strokeWidth=2;html=1;shape=mxgraph.flowchart.database;whiteSpace=wrap;fillColor=#dae8fc;strokeColor=#6c8ebf;" parent="WIyWlLk6GJQsqaUBKTNV-1" vertex="1">
          <mxGeometry x="-500" y="-1130" width="60" height="60" as="geometry" />
        </mxCell>
        <mxCell id="LVA1VL4anGFoCZ9Vgksi-87" value="Prints" style="strokeWidth=2;html=1;shape=mxgraph.flowchart.database;whiteSpace=wrap;fillColor=#dae8fc;strokeColor=#6c8ebf;" parent="WIyWlLk6GJQsqaUBKTNV-1" vertex="1">
          <mxGeometry x="1202" y="-1290" width="60" height="60" as="geometry" />
        </mxCell>
        <mxCell id="LVA1VL4anGFoCZ9Vgksi-88" style="edgeStyle=orthogonalEdgeStyle;rounded=0;orthogonalLoop=1;jettySize=auto;html=1;entryX=0.552;entryY=0.013;entryDx=0;entryDy=0;entryPerimeter=0;dashed=1;" parent="WIyWlLk6GJQsqaUBKTNV-1" source="LVA1VL4anGFoCZ9Vgksi-87" target="LVA1VL4anGFoCZ9Vgksi-27" edge="1">
          <mxGeometry relative="1" as="geometry" />
        </mxCell>
        <mxCell id="Kkr6p6qzVswcM8IEYo6j-0" style="edgeStyle=orthogonalEdgeStyle;rounded=0;orthogonalLoop=1;jettySize=auto;html=1;entryX=0;entryY=0.5;entryDx=0;entryDy=0;exitX=0.5;exitY=0;exitDx=0;exitDy=0;exitPerimeter=0;" edge="1" parent="WIyWlLk6GJQsqaUBKTNV-1" source="LVA1VL4anGFoCZ9Vgksi-89" target="LVA1VL4anGFoCZ9Vgksi-3">
          <mxGeometry relative="1" as="geometry">
            <Array as="points">
              <mxPoint x="550" y="-950" />
              <mxPoint x="700" y="-950" />
              <mxPoint x="700" y="-1020" />
            </Array>
          </mxGeometry>
        </mxCell>
        <mxCell id="LVA1VL4anGFoCZ9Vgksi-89" value="Templates" style="strokeWidth=2;html=1;shape=mxgraph.flowchart.database;whiteSpace=wrap;fillColor=#dae8fc;strokeColor=#6c8ebf;" parent="WIyWlLk6GJQsqaUBKTNV-1" vertex="1">
          <mxGeometry x="520" y="-870" width="60" height="60" as="geometry" />
        </mxCell>
        <mxCell id="LVA1VL4anGFoCZ9Vgksi-91" style="edgeStyle=orthogonalEdgeStyle;rounded=0;orthogonalLoop=1;jettySize=auto;html=1;entryX=0.5;entryY=1;entryDx=0;entryDy=0;entryPerimeter=0;" parent="WIyWlLk6GJQsqaUBKTNV-1" source="LVA1VL4anGFoCZ9Vgksi-21" target="LVA1VL4anGFoCZ9Vgksi-89" edge="1">
          <mxGeometry relative="1" as="geometry">
            <Array as="points">
              <mxPoint x="550" y="-740" />
            </Array>
          </mxGeometry>
        </mxCell>
        <mxCell id="LVA1VL4anGFoCZ9Vgksi-92" style="edgeStyle=orthogonalEdgeStyle;rounded=0;orthogonalLoop=1;jettySize=auto;html=1;entryX=0.5;entryY=1;entryDx=0;entryDy=0;entryPerimeter=0;dashed=1;" parent="WIyWlLk6GJQsqaUBKTNV-1" source="LVA1VL4anGFoCZ9Vgksi-42" target="LVA1VL4anGFoCZ9Vgksi-85" edge="1">
          <mxGeometry relative="1" as="geometry">
            <Array as="points">
              <mxPoint x="20" y="-840" />
              <mxPoint x="-470" y="-840" />
            </Array>
          </mxGeometry>
        </mxCell>
        <mxCell id="LVA1VL4anGFoCZ9Vgksi-93" style="edgeStyle=orthogonalEdgeStyle;rounded=0;orthogonalLoop=1;jettySize=auto;html=1;entryX=1;entryY=0.5;entryDx=0;entryDy=0;entryPerimeter=0;" parent="WIyWlLk6GJQsqaUBKTNV-1" source="LVA1VL4anGFoCZ9Vgksi-25" target="LVA1VL4anGFoCZ9Vgksi-87" edge="1">
          <mxGeometry relative="1" as="geometry">
            <Array as="points">
              <mxPoint x="1320" y="-480" />
              <mxPoint x="1320" y="-1260" />
            </Array>
          </mxGeometry>
        </mxCell>
        <mxCell id="LVA1VL4anGFoCZ9Vgksi-96" style="edgeStyle=orthogonalEdgeStyle;rounded=0;orthogonalLoop=1;jettySize=auto;html=1;entryX=1;entryY=0.75;entryDx=0;entryDy=0;dashed=1;" parent="WIyWlLk6GJQsqaUBKTNV-1" source="LVA1VL4anGFoCZ9Vgksi-94" target="LVA1VL4anGFoCZ9Vgksi-18" edge="1">
          <mxGeometry relative="1" as="geometry" />
        </mxCell>
        <mxCell id="LVA1VL4anGFoCZ9Vgksi-94" value="Comments" style="strokeWidth=2;html=1;shape=mxgraph.flowchart.database;whiteSpace=wrap;fillColor=#dae8fc;strokeColor=#6c8ebf;" parent="WIyWlLk6GJQsqaUBKTNV-1" vertex="1">
          <mxGeometry x="1038" y="-350" width="60" height="60" as="geometry" />
        </mxCell>
        <mxCell id="LVA1VL4anGFoCZ9Vgksi-95" value="Listings" style="strokeWidth=2;html=1;shape=mxgraph.flowchart.database;whiteSpace=wrap;fillColor=#dae8fc;strokeColor=#6c8ebf;" parent="WIyWlLk6GJQsqaUBKTNV-1" vertex="1">
          <mxGeometry x="1038" y="-280" width="60" height="60" as="geometry" />
        </mxCell>
        <mxCell id="LVA1VL4anGFoCZ9Vgksi-97" style="edgeStyle=orthogonalEdgeStyle;rounded=0;orthogonalLoop=1;jettySize=auto;html=1;entryX=1;entryY=0.5;entryDx=0;entryDy=0;entryPerimeter=0;" parent="WIyWlLk6GJQsqaUBKTNV-1" source="LVA1VL4anGFoCZ9Vgksi-25" target="LVA1VL4anGFoCZ9Vgksi-95" edge="1">
          <mxGeometry relative="1" as="geometry">
            <Array as="points">
              <mxPoint x="1160" y="-450" />
              <mxPoint x="1160" y="-360" />
              <mxPoint x="1120" y="-360" />
              <mxPoint x="1120" y="-250" />
            </Array>
          </mxGeometry>
        </mxCell>
        <mxCell id="LVA1VL4anGFoCZ9Vgksi-98" style="edgeStyle=orthogonalEdgeStyle;rounded=0;orthogonalLoop=1;jettySize=auto;html=1;dashed=1;" parent="WIyWlLk6GJQsqaUBKTNV-1" source="LVA1VL4anGFoCZ9Vgksi-95" edge="1">
          <mxGeometry relative="1" as="geometry">
            <mxPoint x="861" y="-620" as="targetPoint" />
            <Array as="points">
              <mxPoint x="900" y="-250" />
              <mxPoint x="900" y="-590" />
              <mxPoint x="861" y="-590" />
            </Array>
          </mxGeometry>
        </mxCell>
        <mxCell id="LVA1VL4anGFoCZ9Vgksi-100" value="Reports" style="strokeWidth=2;html=1;shape=mxgraph.flowchart.database;whiteSpace=wrap;fillColor=#dae8fc;strokeColor=#6c8ebf;" parent="WIyWlLk6GJQsqaUBKTNV-1" vertex="1">
          <mxGeometry x="900" y="-170" width="60" height="60" as="geometry" />
        </mxCell>
        <mxCell id="LVA1VL4anGFoCZ9Vgksi-101" style="edgeStyle=orthogonalEdgeStyle;rounded=0;orthogonalLoop=1;jettySize=auto;html=1;dashed=1;" parent="WIyWlLk6GJQsqaUBKTNV-1" source="LVA1VL4anGFoCZ9Vgksi-18" edge="1">
          <mxGeometry relative="1" as="geometry">
            <mxPoint x="1050" y="-350" as="targetPoint" />
            <Array as="points">
              <mxPoint x="980" y="-650" />
              <mxPoint x="980" y="-400" />
              <mxPoint x="1050" y="-400" />
            </Array>
          </mxGeometry>
        </mxCell>
      </root>
    </mxGraphModel>
  </diagram>
</mxfile>
